HIERARCHY
ROOT Hips
{
	OFFSET 0.00000 0.00000 0.00000
	CHANNELS 6 Xposition Yposition Zposition Zrotation Yrotation Xrotation 
	JOINT LHipJoint
	{
		OFFSET 0 0 0
		CHANNELS 3 Zrotation Yrotation Xrotation
		JOINT LeftUpLeg
		{
			OFFSET 1.78158 -1.79992 1.25746
			CHANNELS 3 Zrotation Yrotation Xrotation
			JOINT LeftLeg
			{
				OFFSET 2.48433 -6.82566 0.00000
				CHANNELS 3 Zrotation Yrotation Xrotation
				JOINT LeftFoot
				{
					OFFSET 2.69722 -7.41057 0.00000
					CHANNELS 3 Zrotation Yrotation Xrotation
					JOINT LeftToeBase
					{
						OFFSET 0.10733 -0.29489 1.75071
						CHANNELS 3 Zrotation Yrotation Xrotation
						End Site
						{
							OFFSET 0.00000 -0.00000 0.90224
						}
					}
				}
			}
		}
	}
	JOINT RHipJoint
	{
		OFFSET 0 0 0
		CHANNELS 3 Zrotation Yrotation Xrotation
		JOINT RightUpLeg
		{
			OFFSET -1.91234 -1.79993 1.25746
			CHANNELS 3 Zrotation Yrotation Xrotation
			JOINT RightLeg
			{
				OFFSET -2.33122 -6.40498 0.00000
				CHANNELS 3 Zrotation Yrotation Xrotation
				JOINT RightFoot
				{
					OFFSET -2.75667 -7.57390 0.00000
					CHANNELS 3 Zrotation Yrotation Xrotation
					JOINT RightToeBase
					{
						OFFSET -0.15946 -0.43811 1.78925
						CHANNELS 3 Zrotation Yrotation Xrotation
						End Site
						{
							OFFSET -0.00000 -0.00000 0.93158
						}
					}
				}
			}
		}
	}
	JOINT LowerBack
	{
		OFFSET 0 0 0
		CHANNELS 3 Zrotation Yrotation Xrotation
		JOINT Spine
		{
			OFFSET -0.02267 2.03993 -0.26238
			CHANNELS 3 Zrotation Yrotation Xrotation
			JOINT Spine1
			{
				OFFSET 0.02263 2.06220 -0.00892
				CHANNELS 3 Zrotation Yrotation Xrotation
				JOINT Neck
				{
					OFFSET 0 0 0
					CHANNELS 3 Zrotation Yrotation Xrotation
					JOINT Neck1
					{
						OFFSET -0.06177 1.95978 0.28606
						CHANNELS 3 Zrotation Yrotation Xrotation
						JOINT Head
						{
							OFFSET 0.08482 1.96576 -0.43252
							CHANNELS 3 Zrotation Yrotation Xrotation
							End Site
							{
								OFFSET 0.02787 2.02739 -0.18071
							}
						}
					}
				}
				JOINT LeftShoulder
				{
					OFFSET 0 0 0
					CHANNELS 3 Zrotation Yrotation Xrotation
					JOINT LeftArm
					{
						OFFSET 3.80978 1.64906 0.29973
						CHANNELS 3 Zrotation Yrotation Xrotation
						JOINT LeftForeArm
						{
							OFFSET 4.93042 -0.00000 0.00000
							CHANNELS 3 Zrotation Yrotation Xrotation
							JOINT LeftHand
							{
								OFFSET 3.68177 -0.00000 0.00000
								CHANNELS 3 Zrotation Yrotation Xrotation
								JOINT LeftFingerBase
								{
									OFFSET 0 0 0
									CHANNELS 3 Zrotation Yrotation Xrotation
									JOINT LeftHandIndex1
									{
										OFFSET 0.72148 -0.00000 0.00000
										CHANNELS 3 Zrotation Yrotation Xrotation
										End Site
										{
											OFFSET 0.58168 -0.00000 0.00000
										}
									}
								}
								JOINT LThumb
								{
									OFFSET 0 0 0
									CHANNELS 3 Zrotation Yrotation Xrotation
									End Site
									{
										OFFSET 0.59056 -0.00000 0.59056
									}
								}
							}
						}
					}
				}
				JOINT RightShoulder
				{
					OFFSET 0 0 0
					CHANNELS 3 Zrotation Yrotation Xrotation
					JOINT RightArm
					{
						OFFSET -3.49270 1.85636 0.09297
						CHANNELS 3 Zrotation Yrotation Xrotation
						JOINT RightForeArm
						{
							OFFSET -5.07905 -0.00000 -0.00000
							CHANNELS 3 Zrotation Yrotation Xrotation
							JOINT RightHand
							{
								OFFSET -3.54394 -0.00000 0.00000
								CHANNELS 3 Zrotation Yrotation Xrotation
								JOINT RightFingerBase
								{
									OFFSET 0 0 0
									CHANNELS 3 Zrotation Yrotation Xrotation
									JOINT RightHandIndex1
									{
										OFFSET -0.68116 -0.00000 0.00000
										CHANNELS 3 Zrotation Yrotation Xrotation
										End Site
										{
											OFFSET -0.54917 -0.00000 0.00000
										}
									}
								}
								JOINT RThumb
								{
									OFFSET 0 0 0
									CHANNELS 3 Zrotation Yrotation Xrotation
									End Site
									{
										OFFSET -0.55755 -0.00000 0.55755
									}
								}
							}
						}
					}
				}
			}
		}
	}
}
MOTION
Frames: 14
Frame Time: .0083333
-10.0163 17.9578 -16.6224 201.2430 88.0041 206.0840 0.0000 0.0000 0.0000 -14.2372 -9.4146 -9.3485 2.0677 9.0058 25.8134 1.4378 2.0870 -23.4910 3.2650 -11.1122 -32.6591 0.0000 0.0000 0.0000 14.4428 -8.2060 3.3166 0.0000 0.0000 -0.0000 0.3039 -13.1568 -14.2874 -0.0446 1.3632 -3.7488 0.8084 0.1643 7.6967 1.9353 0.4524 -2.5141 1.5127 0.2417 -6.9712 -6.9394 -4.7646 -24.6004 3.3635 -4.8143 32.2354 1.6855 -2.1966 15.8413 -0.0000 -0.0000 0.0000 -93.2333 -19.5055 49.8014 94.7264 -59.9154 -64.0920 -0.0000 0.0000 -32.6196 37.9270 24.7137 18.0449 -7.1250 0.0000 -0.0000 10.0885 59.9590 3.7055 -0.0000 -0.0000 0.0000 81.9669 13.3690 43.3433 -98.0252 59.7552 -66.9444 0.0000 0.0000 5.4351 -26.4879 -32.9139 15.1510 7.1250 -0.0000 -0.0000 7.6108 -65.7037 -3.8151
-10.0284 17.9604 -16.6308 199.1710 88.1579 204.0330 0.0000 0.0000 0.0000 -14.4015 -9.4045 -9.3264 2.0533 8.9763 25.7211 1.4331 2.1805 -23.4941 3.2446 -11.0809 -32.5531 0.0000 0.0000 0.0000 14.2829 -8.0844 3.2991 0.0000 0.0000 -0.0000 0.2953 -13.1097 -14.3511 -0.0325 1.1639 -3.1998 0.7386 0.2122 7.7491 1.9000 0.5065 -2.4968 1.5075 0.2700 -6.9843 -7.0157 -4.7806 -24.5833 3.4268 -4.8353 32.0339 1.7177 -2.2088 15.7472 -0.0000 0.0000 0.0000 -93.4277 -21.0546 49.7064 91.8189 -59.9875 -61.5752 -0.0000 0.0000 -33.1762 37.7569 24.7518 17.9660 -7.1250 0.0000 -0.0000 9.8699 59.9573 3.6238 -0.0000 0.0000 0.0000 81.6497 14.5778 43.1350 -96.1009 59.8589 -65.2810 0.0000 0.0000 5.3389 -25.8704 -32.7348 14.6938 7.1250 -0.0000 -0.0000 8.2563 -65.3456 -4.0723
-10.0422 17.9632 -16.6359 196.4920 88.3155 201.3790 0.0000 0.0000 0.0000 -14.5576 -9.3544 -9.3173 2.0362 8.9410 25.6109 1.4312 2.1818 -23.4803 3.1615 -10.9519 -32.1179 0.0000 0.0000 0.0000 14.1248 -7.9563 3.2722 0.0000 0.0000 -0.0000 0.2877 -13.0690 -14.4092 -0.0214 0.9446 -2.5964 0.6122 0.2639 7.7989 1.8617 0.5590 -2.4679 1.5311 0.2998 -6.9841 -7.0522 -4.7942 -24.5934 3.4684 -4.8587 31.8865 1.7340 -2.2192 15.6835 -0.0000 -0.0000 0.0000 -93.5517 -22.6661 49.6400 88.5682 -59.9923 -58.7601 -0.0000 0.0000 -33.7988 37.5858 24.7759 17.8777 -7.1250 0.0000 -0.0000 9.6515 59.9392 3.5385 -0.0000 -0.0000 0.0000 81.4409 15.8055 42.8916 -94.0876 59.9368 -63.5392 0.0000 0.0000 5.4260 -25.4043 -32.4164 14.2837 7.1250 -0.0000 -0.0000 8.6027 -64.8923 -4.1539
-10.0572 17.9664 -16.6389 193.8610 88.4446 198.7910 0.0000 0.0000 0.0000 -14.6752 -9.3043 -9.3464 2.0204 8.9084 25.5092 1.4319 2.1216 -23.4591 3.0369 -10.7546 -31.4565 0.0000 0.0000 0.0000 14.0020 -7.8377 3.2122 0.0000 0.0000 -0.0000 0.2831 -13.0435 -14.4429 -0.0136 0.7530 -2.0695 0.4740 0.3037 7.8400 1.8322 0.5947 -2.4373 1.5729 0.3221 -6.9769 -7.0416 -4.7925 -24.6280 3.4726 -4.8634 31.7798 1.7305 -2.2209 15.6404 0.0000 0.0000 0.0000 -93.6034 -24.2689 49.6024 85.2110 -59.9132 -55.8538 -0.0000 0.0000 -34.3881 37.4533 24.7773 17.7986 -7.1250 0.0000 -0.0000 9.4839 59.9055 3.4688 0.0000 0.0000 0.0000 81.3789 17.0895 42.6382 -91.9293 59.9859 -61.6707 0.0000 0.0000 5.6062 -24.9919 -32.1138 13.9175 7.1250 -0.0000 -0.0000 8.8915 -64.4719 -4.2076
-10.0732 17.9700 -16.6411 191.9680 88.5234 196.9640 0.0000 0.0000 0.0000 -14.7393 -9.2787 -9.4303 2.0090 8.8849 25.4358 1.4324 2.0376 -23.4269 2.9055 -10.5404 -30.7452 0.0000 0.0000 0.0000 13.9317 -7.7441 3.1074 0.0000 0.0000 -0.0000 0.2828 -13.0389 -14.4392 -0.0095 0.6293 -1.7294 0.3625 0.3182 7.8778 1.8213 0.6010 -2.4111 1.6233 0.3293 -6.9720 -6.9899 -4.7651 -24.6683 3.4373 -4.8328 31.6720 1.7104 -2.2087 15.5928 0.0000 -0.0000 0.0000 -93.5864 -25.8097 49.5876 81.9716 -59.7550 -53.0529 -0.0000 0.0000 -34.9064 37.3854 24.7321 17.7293 -7.1250 0.0000 -0.0000 9.4024 59.8355 3.4229 0.0000 -0.0000 0.0000 81.4485 18.4430 42.3956 -89.6024 59.9994 -59.6557 0.0000 0.0000 5.7947 -24.5420 -31.9563 13.5863 7.1250 -0.0000 -0.0000 9.3262 -64.1893 -4.3536
-10.0901 17.9738 -16.6441 191.0640 88.5442 196.1460 0.0000 0.0000 0.0000 -14.7538 -9.2781 -9.5741 2.0032 8.8727 25.3980 1.4292 1.9570 -23.3677 2.7994 -10.3630 -30.1605 0.0000 0.0000 0.0000 13.9096 -7.6864 2.9594 0.0000 0.0000 -0.0000 0.2871 -13.0558 -14.3937 -0.0084 0.5923 -1.6276 0.2980 0.3013 7.9263 1.8322 0.5723 -2.3904 1.6749 0.3182 -6.9779 -6.9090 -4.7070 -24.6910 3.3738 -4.7611 31.5059 1.6812 -2.1810 15.5091 0.0000 0.0000 0.0000 -93.5147 -27.2637 49.5862 79.0137 -59.5390 -50.5003 -0.0000 0.0000 -35.3791 37.3892 24.6213 17.6617 -7.1250 0.0000 -0.0000 9.4170 59.7094 3.3999 0.0000 0.0000 0.0000 81.5955 19.8486 42.1677 -87.1446 59.9692 -57.5274 0.0000 0.0000 5.9481 -24.0461 -31.9688 13.2919 7.1250 -0.0000 -0.0000 9.9336 -64.0661 -4.6113
-10.1081 17.9777 -16.6488 190.7600 88.5141 195.9390 0.0000 0.0000 0.0000 -14.7389 -9.2842 -9.7710 2.0019 8.8701 25.3898 1.4195 1.8931 -23.2637 2.7405 -10.2626 -29.8312 0.0000 0.0000 0.0000 13.9146 -7.6656 2.7800 0.0000 -0.0000 0.0000 0.2956 -13.0915 -14.3110 -0.0096 0.6330 -1.7396 0.2801 0.2560 7.9993 1.8593 0.5124 -2.3705 1.7218 0.2902 -6.9976 -6.8096 -4.6194 -24.6802 3.3023 -4.6553 31.2276 1.6513 -2.1396 15.3627 0.0000 -0.0000 0.0000 -93.4136 -28.6323 49.5891 76.4231 -59.2919 -48.2700 -0.0000 0.0000 -35.8619 37.4567 24.4504 17.5940 -7.1250 0.0000 -0.0000 9.5159 59.5308 3.3953 0.0000 -0.0000 0.0000 81.7556 21.2663 41.9396 -84.6566 59.8918 -55.3742 0.0000 0.0000 6.0704 -23.6052 -32.0596 13.0593 7.1250 -0.0000 -0.0000 10.5288 -64.0368 -4.8833
-10.1272 17.9819 -16.6554 190.4060 88.4529 195.6890 0.0000 0.0000 0.0000 -14.7202 -9.2767 -10.0049 2.0031 8.8726 25.3976 1.4026 1.8482 -23.1106 2.7332 -10.2501 -29.7903 0.0000 0.0000 0.0000 13.9207 -7.6712 2.5833 0.0000 -0.0000 0.0000 0.3067 -13.1397 -14.2030 -0.0124 0.7191 -1.9762 0.2940 0.1942 8.1022 1.8911 0.4346 -2.3442 1.7583 0.2523 -7.0268 -6.6972 -4.5085 -24.6338 3.2455 -4.5319 30.8039 1.6273 -2.0889 15.1415 0.0000 0.0000 0.0000 -93.3130 -29.9308 49.5954 74.2149 -59.0373 -46.3739 -0.0000 0.0000 -36.3954 37.5722 24.2550 17.5386 -7.1250 0.0000 -0.0000 9.6756 59.3362 3.4079 0.0000 0.0000 0.0000 81.8841 22.6503 41.6862 -82.2743 59.7733 -53.3144 0.0000 0.0000 6.1904 -23.3793 -32.0897 12.9344 7.1250 -0.0000 -0.0000 10.8211 -64.0054 -5.0125
-10.1469 17.9866 -16.6634 189.6220 88.3882 195.0130 0.0000 0.0000 0.0000 -14.7175 -9.2487 -10.2566 2.0045 8.8755 25.4067 1.3809 1.8214 -22.9262 2.7652 -10.3049 -29.9698 0.0000 0.0000 0.0000 13.9090 -7.6812 2.3784 0.0000 0.0000 -0.0000 0.3189 -13.1931 -14.0849 -0.0157 0.8086 -2.2223 0.3206 0.1325 8.2276 1.9155 0.3579 -2.3058 1.7798 0.2141 -7.0559 -6.5742 -4.3835 -24.5636 3.2232 -4.4093 30.2325 1.6141 -2.0339 14.8517 -0.0000 -0.0000 0.0000 -93.2380 -31.1737 49.6114 72.3569 -58.7905 -44.7827 -0.0000 0.0000 -36.9765 37.7228 24.0886 17.5216 -7.1250 0.0000 -0.0000 9.8752 59.1839 3.4430 -0.0000 -0.0000 0.0000 81.9719 23.9663 41.3883 -80.1225 59.6281 -51.4565 0.0000 0.0000 6.3302 -23.4857 -31.9569 12.9517 7.1250 -0.0000 -0.0000 10.5961 -63.9018 -4.8815
-10.1664 17.9921 -16.6718 188.4730 88.3479 193.9810 0.0000 0.0000 0.0000 -14.7354 -9.2103 -10.5108 2.0047 8.8758 25.4077 1.3590 1.8115 -22.7457 2.8122 -10.3846 -30.2314 0.0000 0.0000 0.0000 13.8768 -7.6678 2.1666 0.0000 0.0000 -0.0000 0.3306 -13.2442 -13.9693 -0.0180 0.8673 -2.3839 0.3440 0.0867 8.3576 1.9260 0.3007 -2.2548 1.7858 0.1851 -7.0747 -6.4461 -4.2543 -24.4887 3.2482 -4.3014 29.5444 1.6151 -1.9786 14.5161 -0.0000 -0.0000 0.0000 -93.2010 -32.3648 49.6451 70.7907 -58.5588 -43.4447 -0.0000 0.0000 -37.5587 37.8959 24.0010 17.5679 -7.1250 0.0000 -0.0000 10.0962 59.1281 3.5075 -0.0000 -0.0000 0.0000 82.0414 25.2013 41.0456 -78.2714 59.4738 -49.8607 0.0000 0.0000 6.4861 -23.9103 -31.6363 13.0915 7.1250 -0.0000 -0.0000 9.8589 -63.6958 -4.4910
-10.1849 17.9986 -16.6794 187.3450 88.3515 192.9920 0.0000 0.0000 0.0000 -14.7620 -9.1815 -10.7615 2.0035 8.8734 25.4000 1.3416 1.8183 -22.6072 2.8467 -10.4427 -30.4226 0.0000 0.0000 0.0000 13.8376 -7.6068 1.9424 0.0000 0.0000 -0.0000 0.3411 -13.2887 -13.8625 -0.0187 0.8829 -2.4268 0.3558 0.0657 8.4718 1.9251 0.2743 -2.1964 1.7822 0.1713 -7.0774 -6.3234 -4.1292 -24.4288 3.3225 -4.2127 28.7965 1.6322 -1.9252 14.1667 0.0000 -0.0000 0.0000 -93.1972 -33.4973 49.6962 69.4430 -58.3414 -42.2962 -0.0000 0.0000 -38.0807 38.0749 24.0158 17.6840 -7.1250 0.0000 -0.0000 10.3186 59.1923 3.6017 0.0000 -0.0000 0.0000 82.1285 26.3648 40.6795 -76.7111 59.3221 -48.5177 0.0000 0.0000 6.6279 -24.4624 -31.1728 13.2508 7.1250 -0.0000 -0.0000 8.8814 -63.3769 -3.9758
-10.2017 18.0059 -16.6855 186.7700 88.4043 192.5830 0.0000 0.0000 0.0000 -14.7754 -9.1800 -11.0134 2.0021 8.8704 25.3908 1.3315 1.8386 -22.5336 2.8491 -10.4467 -30.4357 0.0000 0.0000 0.0000 13.8133 -7.4876 1.6992 0.0000 0.0000 -0.0000 0.3503 -13.3261 -13.7632 -0.0181 0.8682 -2.3861 0.3555 0.0690 8.5557 1.9231 0.2785 -2.1399 1.7795 0.1730 -7.0655 -6.2209 -4.0143 -24.3978 3.4374 -4.1402 28.0575 1.6654 -1.8748 13.8365 0.0000 -0.0000 0.0000 -93.2081 -34.5623 49.7514 68.2290 -58.1311 -41.2640 -0.0000 0.0000 -38.5017 38.2351 24.1205 17.8479 -7.1250 0.0000 -0.0000 10.5138 59.3560 3.7120 0.0000 -0.0000 0.0000 82.2591 27.4811 40.3252 -75.3550 59.1739 -47.3522 0.0000 0.0000 6.7197 -24.8103 -30.6515 13.2614 7.1250 -0.0000 -0.0000 8.1283 -62.9405 -3.5531
-10.2167 18.0135 -16.6898 187.2940 88.4937 193.3000 0.0000 0.0000 0.0000 -14.7548 -9.2118 -11.2756 2.0021 8.8705 25.3911 1.3288 1.8650 -22.5228 2.8150 -10.3893 -30.2469 0.0000 0.0000 0.0000 13.8240 -7.3197 1.4361 0.0000 0.0000 -0.0000 0.3589 -13.3594 -13.6654 -0.0174 0.8517 -2.3409 0.3496 0.0865 8.6057 1.9317 0.3016 -2.0936 1.7883 0.1845 -7.0457 -6.1510 -3.9137 -24.4012 3.5764 -4.0774 27.3905 1.7119 -1.8276 13.5517 0.0000 -0.0000 0.0000 -93.2091 -35.5603 49.7867 67.0535 -57.9138 -40.2669 -0.0000 0.0000 -38.8249 38.3479 24.2764 18.0174 -7.1250 0.0000 -0.0000 10.6480 59.5666 3.8138 0.0000 -0.0000 0.0000 82.4364 28.5785 40.0143 -74.0688 59.0189 -46.2486 0.0000 0.0000 6.7451 -24.6201 -30.1640 12.9672 7.1250 -0.0000 -0.0000 8.0514 -62.3937 -3.4156
-10.2301 18.0206 -16.6925 189.2830 88.5918 195.4980 0.0000 0.0000 0.0000 -14.6909 -9.2714 -11.5529 2.0052 8.8769 25.4109 1.3309 1.8892 -22.5505 2.7551 -10.2877 -29.9134 0.0000 0.0000 0.0000 13.8777 -7.1313 1.1620 0.0000 0.0000 -0.0000 0.3678 -13.3933 -13.5638 -0.0179 0.8627 -2.3711 0.3505 0.1032 8.6298 1.9572 0.3259 -2.0611 1.8110 0.1970 -7.0260 -6.1175 -3.8300 -24.4372 3.7197 -4.0205 26.8382 1.7658 -1.7846 13.3270 -0.0000 0.0000 0.0000 -93.1802 -36.5082 49.7801 65.8171 -57.6706 -39.2208 -0.0000 0.0000 -39.0962 38.3954 24.4406 18.1533 -7.1250 0.0000 -0.0000 10.6999 59.7694 3.8845 -0.0000 0.0000 0.0000 82.6407 29.6798 39.7603 -72.7140 58.8403 -45.0882 0.0000 0.0000 6.7226 -23.7551 -29.7748 12.3286 7.1250 -0.0000 -0.0000 8.8259 -61.7750 -3.6180
